<svg width="239" height="340" viewBox="0 0 239 340" fill="none" xmlns="http://www.w3.org/2000/svg">
<path d="M205.63 0.259308C179.947 2.73742 156.022 18.9892 144.246 41.9262C129.994 69.6464 133.535 103.187 123.717 132.781C110.963 171.163 77.5933 198.451 55.2511 232.107C28.6188 272.218 18.1099 320.627 8.14802 367.74C1.52595 399.034 -5.00974 432.258 5.70073 462.398C20.3269 503.546 69.3014 528.904 111.28 517.118C182.51 497.121 204.392 398.313 272.916 370.391C308.416 355.926 352.409 362.698 382.352 338.723C417.795 310.311 413.908 255.937 404.666 211.446C397.641 177.588 389.435 143.99 381.258 110.391C374.607 83.1896 367.323 54.7201 348.407 34.0596C325.057 8.5581 305.853 17.9807 277.551 17.3756C252.589 16.7993 233.039 -2.39169 205.63 0.259308Z" fill="#FEC803"/>
</svg>
